<mxfile host="app.diagrams.net" agent="Mozilla/5.0 (Windows NT 10.0; Win64; x64) AppleWebKit/537.36 (KHTML, like Gecko) Chrome/140.0.0.0 Safari/537.36 Edg/140.0.0.0" version="28.2.5">
  <diagram name="第 1 页" id="mmhWbz5sw94j-KuUNXgd">
    <mxGraphModel dx="1546" dy="906" grid="1" gridSize="10" guides="1" tooltips="1" connect="1" arrows="1" fold="1" page="1" pageScale="1" pageWidth="827" pageHeight="1169" math="0" shadow="0">
      <root>
        <mxCell id="0" />
        <mxCell id="1" parent="0" />
        <mxCell id="NzeepcIVsZRLkBc2XQmO-2" value="" style="rounded=1;whiteSpace=wrap;html=1;align=center;fontStyle=1;" vertex="1" parent="1">
          <mxGeometry x="120" y="230" width="550" height="310" as="geometry" />
        </mxCell>
        <mxCell id="NzeepcIVsZRLkBc2XQmO-3" value="运行时数据区" style="text;html=1;align=center;verticalAlign=middle;whiteSpace=wrap;rounded=0;fontStyle=3;fontSize=16;" vertex="1" parent="1">
          <mxGeometry x="320" y="240" width="130" height="40" as="geometry" />
        </mxCell>
        <mxCell id="NzeepcIVsZRLkBc2XQmO-4" value="&lt;b&gt;方法区&lt;/b&gt;" style="rounded=0;whiteSpace=wrap;html=1;fillColor=#f8cecc;strokeColor=#b85450;gradientColor=#ea6b66;" vertex="1" parent="1">
          <mxGeometry x="150" y="300" width="150" height="70" as="geometry" />
        </mxCell>
        <mxCell id="NzeepcIVsZRLkBc2XQmO-5" value="&lt;b&gt;堆&lt;/b&gt;" style="rounded=0;whiteSpace=wrap;html=1;fillColor=#f8cecc;gradientColor=#ea6b66;strokeColor=#b85450;" vertex="1" parent="1">
          <mxGeometry x="150" y="410" width="150" height="70" as="geometry" />
        </mxCell>
        <mxCell id="NzeepcIVsZRLkBc2XQmO-6" value="&lt;span&gt;程序计数器&lt;/span&gt;" style="rounded=0;whiteSpace=wrap;html=1;fontStyle=1;fillColor=#f5f5f5;gradientColor=#b3b3b3;strokeColor=#666666;" vertex="1" parent="1">
          <mxGeometry x="330" y="300" width="125" height="70" as="geometry" />
        </mxCell>
        <mxCell id="NzeepcIVsZRLkBc2XQmO-7" value="虚拟机栈" style="rounded=0;whiteSpace=wrap;html=1;fontStyle=1;fillColor=#f5f5f5;gradientColor=#b3b3b3;strokeColor=#666666;" vertex="1" parent="1">
          <mxGeometry x="340" y="400" width="275" height="80" as="geometry" />
        </mxCell>
        <mxCell id="NzeepcIVsZRLkBc2XQmO-8" value="&lt;span&gt;本地方法栈&lt;/span&gt;" style="rounded=0;whiteSpace=wrap;html=1;fontStyle=1;fillColor=#f5f5f5;gradientColor=#b3b3b3;strokeColor=#666666;" vertex="1" parent="1">
          <mxGeometry x="485" y="300" width="130" height="70" as="geometry" />
        </mxCell>
      </root>
    </mxGraphModel>
  </diagram>
</mxfile>
